<?xml version="1.0" encoding="UTF-8"?><svg id="OBJECTS" xmlns="http://www.w3.org/2000/svg" xmlns:xlink="http://www.w3.org/1999/xlink" viewBox="0 0 380.23 252.9"><defs><style>.cls-1{filter:url(#drop-shadow-12);stroke-width:.73px;}.cls-1,.cls-2,.cls-3,.cls-4,.cls-5,.cls-6,.cls-7{fill:#b3b3b3;stroke:#fff;stroke-miterlimit:10;}.cls-8,.cls-9,.cls-10{font-family:MyriadPro-Regular, 'Myriad Pro';}.cls-8,.cls-11{font-size:11.06px;}.cls-2{filter:url(#drop-shadow-6);stroke-width:.94px;}.cls-3{filter:url(#drop-shadow-8);stroke-width:.84px;}.cls-4{filter:url(#drop-shadow-14);stroke-width:.78px;}.cls-10,.cls-12{font-size:10px;}.cls-5{filter:url(#drop-shadow-4);stroke-width:.44px;}.cls-13{fill:#fc43aa;filter:url(#drop-shadow-3);}.cls-14{fill:#39b54a;filter:url(#drop-shadow-9);}.cls-15{fill:#3fa9f5;filter:url(#drop-shadow-1);}.cls-16{fill:#8d00e9;filter:url(#drop-shadow-5);}.cls-17{fill:#ff1d25;filter:url(#drop-shadow-7);}.cls-18{fill:#4d58ff;filter:url(#drop-shadow-13);}.cls-19{fill:#feb926;filter:url(#drop-shadow-11);}.cls-6{filter:url(#drop-shadow-10);stroke-width:1.03px;}.cls-20{fill:#130d04;opacity:.55;}.cls-7{filter:url(#drop-shadow-2);stroke-width:.65px;}</style><filter id="drop-shadow-1" filterUnits="userSpaceOnUse"><feOffset dx="-4.49" dy="-4.49"/><feGaussianBlur result="blur" stdDeviation="4.49"/><feFlood flood-color="#ebebff" flood-opacity="0"/><feComposite in2="blur" operator="in"/><feComposite in="SourceGraphic"/></filter><filter id="drop-shadow-2" filterUnits="userSpaceOnUse"><feOffset dx="-2.92" dy="-2.92"/><feGaussianBlur result="blur-2" stdDeviation="2.92"/><feFlood flood-color="#ebebff" flood-opacity="0"/><feComposite in2="blur-2" operator="in"/><feComposite in="SourceGraphic"/></filter><filter id="drop-shadow-3" filterUnits="userSpaceOnUse"><feOffset dx="-5.04" dy="-5.04"/><feGaussianBlur result="blur-3" stdDeviation="5.04"/><feFlood flood-color="#ebebff" flood-opacity="0"/><feComposite in2="blur-3" operator="in"/><feComposite in="SourceGraphic"/></filter><filter id="drop-shadow-4" filterUnits="userSpaceOnUse"><feOffset dx="-1.97" dy="-1.97"/><feGaussianBlur result="blur-4" stdDeviation="1.97"/><feFlood flood-color="#ebebff" flood-opacity="0"/><feComposite in2="blur-4" operator="in"/><feComposite in="SourceGraphic"/></filter><filter id="drop-shadow-5" filterUnits="userSpaceOnUse"><feOffset dx="-2.99" dy="-2.99"/><feGaussianBlur result="blur-5" stdDeviation="2.99"/><feFlood flood-color="#ebebff" flood-opacity="0"/><feComposite in2="blur-5" operator="in"/><feComposite in="SourceGraphic"/></filter><filter id="drop-shadow-6" filterUnits="userSpaceOnUse"><feOffset dx="-4.25" dy="-4.25"/><feGaussianBlur result="blur-6" stdDeviation="4.25"/><feFlood flood-color="#ebebff" flood-opacity="0"/><feComposite in2="blur-6" operator="in"/><feComposite in="SourceGraphic"/></filter><filter id="drop-shadow-7" filterUnits="userSpaceOnUse"><feOffset dx="-3.75" dy="-3.75"/><feGaussianBlur result="blur-7" stdDeviation="3.75"/><feFlood flood-color="#ebebff" flood-opacity="0"/><feComposite in2="blur-7" operator="in"/><feComposite in="SourceGraphic"/></filter><filter id="drop-shadow-8" filterUnits="userSpaceOnUse"><feOffset dx="-3.79" dy="-3.79"/><feGaussianBlur result="blur-8" stdDeviation="3.79"/><feFlood flood-color="#ebebff" flood-opacity="0"/><feComposite in2="blur-8" operator="in"/><feComposite in="SourceGraphic"/></filter><filter id="drop-shadow-9" filterUnits="userSpaceOnUse"><feOffset dx="-2.2" dy="-2.2"/><feGaussianBlur result="blur-9" stdDeviation="2.2"/><feFlood flood-color="#ebebff" flood-opacity="0"/><feComposite in2="blur-9" operator="in"/><feComposite in="SourceGraphic"/></filter><filter id="drop-shadow-10" filterUnits="userSpaceOnUse"><feOffset dx="-4.63" dy="-4.63"/><feGaussianBlur result="blur-10" stdDeviation="4.63"/><feFlood flood-color="#ebebff" flood-opacity="0"/><feComposite in2="blur-10" operator="in"/><feComposite in="SourceGraphic"/></filter><filter id="drop-shadow-11" filterUnits="userSpaceOnUse"><feOffset dx="-4.49" dy="-4.49"/><feGaussianBlur result="blur-11" stdDeviation="4.49"/><feFlood flood-color="#ebebff" flood-opacity="0"/><feComposite in2="blur-11" operator="in"/><feComposite in="SourceGraphic"/></filter><filter id="drop-shadow-12" filterUnits="userSpaceOnUse"><feOffset dx="-3.31" dy="-3.31"/><feGaussianBlur result="blur-12" stdDeviation="3.31"/><feFlood flood-color="#ebebff" flood-opacity="0"/><feComposite in2="blur-12" operator="in"/><feComposite in="SourceGraphic"/></filter><filter id="drop-shadow-13" filterUnits="userSpaceOnUse"><feOffset dx="-3.95" dy="-3.95"/><feGaussianBlur result="blur-13" stdDeviation="3.95"/><feFlood flood-color="#ebebff" flood-opacity="0"/><feComposite in2="blur-13" operator="in"/><feComposite in="SourceGraphic"/></filter><filter id="drop-shadow-14" filterUnits="userSpaceOnUse"><feOffset dx="-3.53" dy="-3.53"/><feGaussianBlur result="blur-14" stdDeviation="3.53"/><feFlood flood-color="#ebebff" flood-opacity="0"/><feComposite in2="blur-14" operator="in"/><feComposite in="SourceGraphic"/></filter></defs><g><rect class="cls-15" x="20.67" y="18.17" width="246.27" height="16.94" rx="8.47" ry="8.47"/><rect class="cls-7" x="247.65" y="18.17" width="121.68" height="16.94" rx="8.47" ry="8.47"/><g><path class="cls-20" d="M269.52,26.64c0,1.42-1.15,2.57-2.58,2.57s-2.57-1.15-2.57-2.57,1.15-2.57,2.57-2.57,2.58,1.15,2.58,2.57Z"/><circle class="cls-20" cx="282.92" cy="26.64" r="2.57"/><circle class="cls-20" cx="302.18" cy="26.64" r="2.57"/><circle class="cls-20" cx="321.43" cy="26.64" r="2.57"/><circle class="cls-20" cx="340.69" cy="26.64" r="2.57"/><circle class="cls-20" cx="359.95" cy="26.64" r="2.57"/></g></g><text class="cls-8" transform="translate(231.96 30.04)"><tspan x="0" y="0">87</tspan></text><text class="cls-9" transform="translate(26.66 16.75)"><tspan class="cls-12" x="0" y="0">EMERGENCY</tspan><tspan class="cls-11" x="52.49" y="0"> </tspan></text><g><rect class="cls-13" x="20.92" y="52.91" width="309.92" height="16.94" rx="8.47" ry="8.47"/><rect class="cls-5" x="314.06" y="52.91" width="55.52" height="16.94" rx="8.47" ry="8.47"/><g><circle class="cls-20" cx="321.68" cy="61.38" r="2.57"/><circle class="cls-20" cx="340.94" cy="61.38" r="2.57"/><circle class="cls-20" cx="360.2" cy="61.38" r="2.57"/></g></g><text class="cls-8" transform="translate(299 64.78)"><tspan x="0" y="0">92</tspan></text><text class="cls-10" transform="translate(26.33 50.66)"><tspan x="0" y="0">CHILDREN’S DEPARTMENT </tspan></text><g><rect class="cls-16" x="20.07" y="88" width="109.38" height="16.94" rx="8.47" ry="8.47"/><rect class="cls-2" x="111.02" y="88" width="257.71" height="16.94" rx="8.47" ry="8.47"/><g><path class="cls-20" d="M268.92,96.47c0,1.42-1.15,2.57-2.58,2.57s-2.57-1.15-2.57-2.57,1.15-2.57,2.57-2.57,2.58,1.15,2.58,2.57Z"/><circle class="cls-20" cx="282.32" cy="96.47" r="2.57"/><circle class="cls-20" cx="301.58" cy="96.47" r="2.57"/><circle class="cls-20" cx="320.83" cy="96.47" r="2.57"/><circle class="cls-20" cx="340.09" cy="96.47" r="2.57"/><circle class="cls-20" cx="359.35" cy="96.47" r="2.57"/></g><g><path class="cls-20" d="M161.36,96.47c0,1.42-1.15,2.57-2.58,2.57s-2.57-1.15-2.57-2.57,1.15-2.57,2.57-2.57,2.58,1.15,2.58,2.57Z"/><circle class="cls-20" cx="174.76" cy="96.47" r="2.57"/><circle class="cls-20" cx="194.02" cy="96.47" r="2.57"/><circle class="cls-20" cx="213.28" cy="96.47" r="2.57"/><circle class="cls-20" cx="232.54" cy="96.47" r="2.57"/><circle class="cls-20" cx="251.79" cy="96.47" r="2.57"/></g><g><circle class="cls-20" cx="123.55" cy="96.47" r="2.57"/><circle class="cls-20" cx="142.81" cy="96.47" r="2.57"/></g></g><text class="cls-8" transform="translate(92.36 99.74)"><tspan x="0" y="0">27</tspan></text><text class="cls-10" transform="translate(26.66 85.82)"><tspan x="0" y="0">CARDIOLOGY</tspan></text><g><rect class="cls-17" x="20.32" y="122.74" width="171.13" height="16.94" rx="8.47" ry="8.47"/><rect class="cls-3" x="164.23" y="122.74" width="204.75" height="16.94" rx="8.47" ry="8.47"/><g><path class="cls-20" d="M269.16,131.21c0,1.42-1.15,2.57-2.58,2.57s-2.57-1.15-2.57-2.57,1.15-2.57,2.57-2.57,2.58,1.15,2.58,2.57Z"/><circle class="cls-20" cx="282.57" cy="131.21" r="2.57"/><circle class="cls-20" cx="301.82" cy="131.21" r="2.57"/><circle class="cls-20" cx="321.08" cy="131.21" r="2.57"/><circle class="cls-20" cx="340.34" cy="131.21" r="2.57"/><circle class="cls-20" cx="359.6" cy="131.21" r="2.57"/></g><g><circle class="cls-20" cx="174.76" cy="131.21" r="2.57"/><circle class="cls-20" cx="194.02" cy="131.21" r="2.57"/><circle class="cls-20" cx="213.28" cy="131.21" r="2.57"/><circle class="cls-20" cx="232.54" cy="131.21" r="2.57"/><circle class="cls-20" cx="251.79" cy="131.21" r="2.57"/></g></g><text class="cls-8" transform="translate(148.59 134.6)"><tspan x="0" y="0">32</tspan></text><text class="cls-10" transform="translate(23.83 119.55)"><tspan x="0" y="0" xml:space="preserve"> RADIOLOGY</tspan></text><g><rect class="cls-14" x="20.67" y="157.58" width="59.24" height="16.94" rx="8.47" ry="8.47"/><rect class="cls-6" x="63.77" y="157.58" width="305.56" height="16.94" rx="8.47" ry="8.47"/><g><path class="cls-20" d="M269.52,166.05c0,1.42-1.15,2.57-2.58,2.57s-2.57-1.15-2.57-2.57,1.15-2.57,2.57-2.57,2.58,1.15,2.58,2.57Z"/><circle class="cls-20" cx="282.92" cy="166.05" r="2.57"/><circle class="cls-20" cx="302.18" cy="166.05" r="2.57"/><circle class="cls-20" cx="321.43" cy="166.05" r="2.57"/><circle class="cls-20" cx="340.69" cy="166.05" r="2.57"/><circle class="cls-20" cx="359.95" cy="166.05" r="2.57"/></g><g><path class="cls-20" d="M178.98,166.05c0,1.42-1.15,2.57-2.58,2.57s-2.57-1.15-2.57-2.57,1.15-2.57,2.57-2.57,2.58,1.15,2.58,2.57Z"/><circle class="cls-20" cx="192.38" cy="166.05" r="2.57"/><circle class="cls-20" cx="211.64" cy="166.05" r="2.57"/><circle class="cls-20" cx="230.89" cy="166.05" r="2.57"/><circle class="cls-20" cx="250.15" cy="166.05" r="2.57"/></g><g><circle class="cls-20" cx="80.35" cy="166.05" r="2.57"/><circle class="cls-20" cx="99.61" cy="166.05" r="2.57"/><circle class="cls-20" cx="118.87" cy="166.05" r="2.57"/><circle class="cls-20" cx="138.12" cy="166.05" r="2.57"/><circle class="cls-20" cx="157.38" cy="166.05" r="2.57"/></g></g><text class="cls-8" transform="translate(48.4 170.27)"><tspan x="0" y="0">12</tspan></text><text class="cls-10" transform="translate(26.66 155.4)"><tspan x="0" y="0">NEUROLOGY</tspan></text><g><rect class="cls-19" x="20.92" y="192.32" width="246.27" height="16.94" rx="8.47" ry="8.47"/><rect class="cls-1" x="213.28" y="192.32" width="156.3" height="16.94" rx="8.47" ry="8.47"/><g><path class="cls-20" d="M269.76,200.79c0,1.42-1.15,2.57-2.58,2.57s-2.57-1.15-2.57-2.57,1.15-2.57,2.57-2.57,2.58,1.15,2.58,2.57Z"/><circle class="cls-20" cx="283.17" cy="200.79" r="2.57"/><circle class="cls-20" cx="302.42" cy="200.79" r="2.57"/><circle class="cls-20" cx="321.68" cy="200.79" r="2.57"/><circle class="cls-20" cx="340.94" cy="200.79" r="2.57"/><circle class="cls-20" cx="360.2" cy="200.79" r="2.57"/></g><g><circle class="cls-20" cx="231.68" cy="200.96" r="2.57"/><circle class="cls-20" cx="250.94" cy="200.96" r="2.57"/></g></g><text class="cls-8" transform="translate(197.93 204.19)"><tspan x="0" y="0">45</tspan></text><text class="cls-10" transform="translate(26.62 189.95)"><tspan x="0" y="0">MATERNITY DEPARTMENT</tspan></text><g><rect class="cls-18" x="20.07" y="227.41" width="190.63" height="16.94" rx="8.47" ry="8.47"/><rect class="cls-4" x="191.45" y="227.41" width="177.29" height="16.94" rx="8.32" ry="8.32"/><g><path class="cls-20" d="M268.92,235.87c0,1.42-1.15,2.57-2.58,2.57s-2.57-1.15-2.57-2.57,1.15-2.57,2.57-2.57,2.58,1.15,2.58,2.57Z"/><circle class="cls-20" cx="282.32" cy="235.87" r="2.57"/><circle class="cls-20" cx="301.58" cy="235.87" r="2.57"/><circle class="cls-20" cx="320.83" cy="235.87" r="2.57"/><circle class="cls-20" cx="340.09" cy="235.87" r="2.57"/><circle class="cls-20" cx="359.35" cy="235.87" r="2.57"/></g><g><circle class="cls-20" cx="210.8" cy="235.87" r="2.57"/><circle class="cls-20" cx="230.06" cy="235.87" r="2.57"/><circle class="cls-20" cx="249.32" cy="235.87" r="2.57"/></g></g><text class="cls-8" transform="translate(174.76 239.27)"><tspan x="0" y="0">40</tspan></text><text class="cls-9" transform="translate(26.8 225.57)"><tspan class="cls-12" x="0" y="0">OTOLARYNGOLOGY</tspan><tspan class="cls-11" x="82.7" y="0" xml:space="preserve">  </tspan></text></svg>