<?xml version="1.0" encoding="UTF-8"?><svg id="Layer_1" xmlns="http://www.w3.org/2000/svg" viewBox="0 0 120 65.43"><defs><style>.cls-1{fill:#4ecb71;}.cls-1,.cls-2,.cls-3,.cls-4{fill-rule:evenodd;}.cls-2{fill:#3f3e40;}.cls-3{fill:#bd362f;}.cls-4{fill:#ffc40d;}</style></defs><path class="cls-1" d="M96.93,12.71c14.06,10.98,23.07,28.07,23.07,47.29h-26.06c0-12.03-6.27-22.59-15.68-28.61l18.67-18.68Z"/><path class="cls-3" d="M0,60C0,40.78,9.04,23.69,23.07,12.71l18.69,18.68c-9.44,6.02-15.68,16.59-15.68,28.61H0Z"/><path class="cls-4" d="M25.14,11.14C34.98,4.14,47.01,0,60,0s25.04,4.14,34.86,11.14l-18.89,18.92c-4.76-2.55-10.18-3.97-15.96-3.97s-11.21,1.43-15.95,3.97L25.14,11.14Z"/><path class="cls-2" d="M59.44,65.43c-2.41-.03-4.32-2.02-4.29-4.43l4.17-25.77,4.56,25.92h0c-.05,2.4-2.04,4.32-4.44,4.27h0Z"/></svg>