<?xml version="1.0" encoding="UTF-8"?><svg id="OBJECTS" xmlns="http://www.w3.org/2000/svg" xmlns:xlink="http://www.w3.org/1999/xlink" viewBox="0 0 412.33 273.76"><defs><style>.cls-1{filter:url(#drop-shadow-8);stroke-width:.91px;}.cls-1,.cls-2,.cls-3,.cls-4,.cls-5,.cls-6,.cls-7{fill:#b3b3b3;stroke:#fff;stroke-miterlimit:10;}.cls-2{filter:url(#drop-shadow-10);stroke-width:1.11px;}.cls-3{filter:url(#drop-shadow-6);stroke-width:1.02px;}.cls-4{filter:url(#drop-shadow-14);stroke-width:.85px;}.cls-5{filter:url(#drop-shadow-4);stroke-width:.47px;}.cls-8{font-family:MyriadPro-Regular, 'Myriad Pro';font-size:12px;}.cls-9{fill:#fc43aa;filter:url(#drop-shadow-3);}.cls-10{fill:#39b54a;filter:url(#drop-shadow-9);}.cls-11{fill:#3fa9f5;filter:url(#drop-shadow-1);}.cls-12{fill:#8d00e9;filter:url(#drop-shadow-5);}.cls-13{fill:#ff1d25;filter:url(#drop-shadow-7);}.cls-14{fill:#4d58ff;filter:url(#drop-shadow-13);}.cls-15{fill:#feb926;filter:url(#drop-shadow-11);}.cls-6{filter:url(#drop-shadow-2);stroke-width:.7px;}.cls-7{filter:url(#drop-shadow-12);stroke-width:.8px;}.cls-16{fill:#130d04;opacity:.55;}</style><filter id="drop-shadow-1" filterUnits="userSpaceOnUse"><feOffset dx="-4.87" dy="-4.87"/><feGaussianBlur result="blur" stdDeviation="4.87"/><feFlood flood-color="#ebebff" flood-opacity="0"/><feComposite in2="blur" operator="in"/><feComposite in="SourceGraphic"/></filter><filter id="drop-shadow-2" filterUnits="userSpaceOnUse"><feOffset dx="-3.17" dy="-3.17"/><feGaussianBlur result="blur-2" stdDeviation="3.17"/><feFlood flood-color="#ebebff" flood-opacity="0"/><feComposite in2="blur-2" operator="in"/><feComposite in="SourceGraphic"/></filter><filter id="drop-shadow-3" filterUnits="userSpaceOnUse"><feOffset dx="-5.47" dy="-5.47"/><feGaussianBlur result="blur-3" stdDeviation="5.47"/><feFlood flood-color="#ebebff" flood-opacity="0"/><feComposite in2="blur-3" operator="in"/><feComposite in="SourceGraphic"/></filter><filter id="drop-shadow-4" filterUnits="userSpaceOnUse"><feOffset dx="-2.14" dy="-2.14"/><feGaussianBlur result="blur-4" stdDeviation="2.14"/><feFlood flood-color="#ebebff" flood-opacity="0"/><feComposite in2="blur-4" operator="in"/><feComposite in="SourceGraphic"/></filter><filter id="drop-shadow-5" filterUnits="userSpaceOnUse"><feOffset dx="-3.25" dy="-3.25"/><feGaussianBlur result="blur-5" stdDeviation="3.25"/><feFlood flood-color="#ebebff" flood-opacity="0"/><feComposite in2="blur-5" operator="in"/><feComposite in="SourceGraphic"/></filter><filter id="drop-shadow-6" filterUnits="userSpaceOnUse"><feOffset dx="-4.61" dy="-4.61"/><feGaussianBlur result="blur-6" stdDeviation="4.61"/><feFlood flood-color="#ebebff" flood-opacity="0"/><feComposite in2="blur-6" operator="in"/><feComposite in="SourceGraphic"/></filter><filter id="drop-shadow-7" filterUnits="userSpaceOnUse"><feOffset dx="-4.06" dy="-4.06"/><feGaussianBlur result="blur-7" stdDeviation="4.06"/><feFlood flood-color="#ebebff" flood-opacity="0"/><feComposite in2="blur-7" operator="in"/><feComposite in="SourceGraphic"/></filter><filter id="drop-shadow-8" filterUnits="userSpaceOnUse"><feOffset dx="-4.11" dy="-4.11"/><feGaussianBlur result="blur-8" stdDeviation="4.11"/><feFlood flood-color="#ebebff" flood-opacity="0"/><feComposite in2="blur-8" operator="in"/><feComposite in="SourceGraphic"/></filter><filter id="drop-shadow-9" filterUnits="userSpaceOnUse"><feOffset dx="-2.39" dy="-2.39"/><feGaussianBlur result="blur-9" stdDeviation="2.39"/><feFlood flood-color="#ebebff" flood-opacity="0"/><feComposite in2="blur-9" operator="in"/><feComposite in="SourceGraphic"/></filter><filter id="drop-shadow-10" filterUnits="userSpaceOnUse"><feOffset dx="-5.02" dy="-5.02"/><feGaussianBlur result="blur-10" stdDeviation="5.02"/><feFlood flood-color="#ebebff" flood-opacity="0"/><feComposite in2="blur-10" operator="in"/><feComposite in="SourceGraphic"/></filter><filter id="drop-shadow-11" filterUnits="userSpaceOnUse"><feOffset dx="-4.87" dy="-4.87"/><feGaussianBlur result="blur-11" stdDeviation="4.87"/><feFlood flood-color="#ebebff" flood-opacity="0"/><feComposite in2="blur-11" operator="in"/><feComposite in="SourceGraphic"/></filter><filter id="drop-shadow-12" filterUnits="userSpaceOnUse"><feOffset dx="-3.59" dy="-3.59"/><feGaussianBlur result="blur-12" stdDeviation="3.59"/><feFlood flood-color="#ebebff" flood-opacity="0"/><feComposite in2="blur-12" operator="in"/><feComposite in="SourceGraphic"/></filter><filter id="drop-shadow-13" filterUnits="userSpaceOnUse"><feOffset dx="-4.29" dy="-4.29"/><feGaussianBlur result="blur-13" stdDeviation="4.29"/><feFlood flood-color="#ebebff" flood-opacity="0"/><feComposite in2="blur-13" operator="in"/><feComposite in="SourceGraphic"/></filter><filter id="drop-shadow-14" filterUnits="userSpaceOnUse"><feOffset dx="-3.83" dy="-3.83"/><feGaussianBlur result="blur-14" stdDeviation="3.83"/><feFlood flood-color="#ebebff" flood-opacity="0"/><feComposite in2="blur-14" operator="in"/><feComposite in="SourceGraphic"/></filter></defs><g><rect class="cls-11" x="22.23" y="19.56" width="267.16" height="18.37" rx="9.19" ry="9.19"/><rect class="cls-6" x="268.46" y="19.56" width="132" height="18.37" rx="9.19" ry="9.19"/><g><path class="cls-16" d="M292.18,28.74c0,1.54-1.25,2.79-2.79,2.79s-2.79-1.25-2.79-2.79,1.25-2.79,2.79-2.79,2.79,1.25,2.79,2.79Z"/><circle class="cls-16" cx="306.72" cy="28.74" r="2.79"/><circle class="cls-16" cx="327.61" cy="28.74" r="2.79"/><circle class="cls-16" cx="348.5" cy="28.74" r="2.79"/><circle class="cls-16" cx="369.39" cy="28.74" r="2.79"/><circle class="cls-16" cx="390.28" cy="28.74" r="2.79"/></g></g><text class="cls-8" transform="translate(251.43 32.43)"><tspan x="0" y="0">87</tspan></text><text class="cls-8" transform="translate(25.66 14.35)"><tspan x="0" y="0">EMERGENCY </tspan></text><g><rect class="cls-9" x="22.49" y="57.24" width="336.2" height="18.37" rx="9.19" ry="9.19"/><rect class="cls-5" x="340.5" y="57.24" width="60.23" height="18.37" rx="9.19" ry="9.19"/><g><circle class="cls-16" cx="348.77" cy="66.43" r="2.79"/><circle class="cls-16" cx="369.66" cy="66.43" r="2.79"/><circle class="cls-16" cx="390.55" cy="66.43" r="2.79"/></g></g><text class="cls-8" transform="translate(324.16 70.12)"><tspan x="0" y="0">92</tspan></text><text class="cls-8" transform="translate(25.92 52.04)"><tspan x="0" y="0">CHILDREN’S DEPARTMENT </tspan></text><g><rect class="cls-12" x="21.57" y="95.3" width="118.65" height="18.37" rx="9.19" ry="9.19"/><rect class="cls-3" x="120.24" y="95.3" width="279.57" height="18.37" rx="9.19" ry="9.19"/><g><path class="cls-16" d="M291.53,104.49c0,1.54-1.25,2.79-2.79,2.79s-2.79-1.25-2.79-2.79,1.25-2.79,2.79-2.79,2.79,1.25,2.79,2.79Z"/><circle class="cls-16" cx="306.07" cy="104.49" r="2.79"/><circle class="cls-16" cx="326.96" cy="104.49" r="2.79"/><circle class="cls-16" cx="347.85" cy="104.49" r="2.79"/><circle class="cls-16" cx="368.74" cy="104.49" r="2.79"/><circle class="cls-16" cx="389.63" cy="104.49" r="2.79"/></g><g><path class="cls-16" d="M174.85,104.49c0,1.54-1.25,2.79-2.79,2.79s-2.79-1.25-2.79-2.79,1.25-2.79,2.79-2.79,2.79,1.25,2.79,2.79Z"/><circle class="cls-16" cx="189.39" cy="104.49" r="2.79"/><circle class="cls-16" cx="210.28" cy="104.49" r="2.79"/><circle class="cls-16" cx="231.17" cy="104.49" r="2.79"/><circle class="cls-16" cx="252.06" cy="104.49" r="2.79"/><circle class="cls-16" cx="272.95" cy="104.49" r="2.79"/></g><g><circle class="cls-16" cx="133.83" cy="104.49" r="2.79"/><circle class="cls-16" cx="154.72" cy="104.49" r="2.79"/></g></g><text class="cls-8" transform="translate(100 108.04)"><tspan x="0" y="0">27</tspan></text><text class="cls-8" transform="translate(25 90.09)"><tspan x="0" y="0">CARDIOLOGY</tspan></text><g><rect class="cls-13" x="21.84" y="132.99" width="185.64" height="18.37" rx="9.19" ry="9.19"/><rect class="cls-1" x="177.96" y="132.99" width="222.12" height="18.37" rx="9.19" ry="9.19"/><g><path class="cls-16" d="M291.79,142.18c0,1.54-1.25,2.79-2.79,2.79s-2.79-1.25-2.79-2.79,1.25-2.79,2.79-2.79,2.79,1.25,2.79,2.79Z"/><circle class="cls-16" cx="306.33" cy="142.18" r="2.79"/><circle class="cls-16" cx="327.22" cy="142.18" r="2.79"/><circle class="cls-16" cx="348.11" cy="142.18" r="2.79"/><circle class="cls-16" cx="369.01" cy="142.18" r="2.79"/><circle class="cls-16" cx="389.9" cy="142.18" r="2.79"/></g><g><circle class="cls-16" cx="189.39" cy="142.18" r="2.79"/><circle class="cls-16" cx="210.28" cy="142.18" r="2.79"/><circle class="cls-16" cx="231.17" cy="142.18" r="2.79"/><circle class="cls-16" cx="252.06" cy="142.18" r="2.79"/><circle class="cls-16" cx="272.95" cy="142.18" r="2.79"/></g></g><text class="cls-8" transform="translate(161 145.86)"><tspan x="0" y="0">32</tspan></text><text class="cls-8" transform="translate(25.27 127.78)"><tspan x="0" y="0" xml:space="preserve"> RADIOLOGY</tspan></text><g><rect class="cls-10" x="22.23" y="170.79" width="64.26" height="18.37" rx="9.19" ry="9.19"/><rect class="cls-2" x="68.99" y="170.79" width="331.48" height="18.37" rx="9.19" ry="9.19"/><g><path class="cls-16" d="M292.18,179.97c0,1.54-1.25,2.79-2.79,2.79s-2.79-1.25-2.79-2.79,1.25-2.79,2.79-2.79,2.79,1.25,2.79,2.79Z"/><circle class="cls-16" cx="306.72" cy="179.97" r="2.79"/><circle class="cls-16" cx="327.61" cy="179.97" r="2.79"/><circle class="cls-16" cx="348.5" cy="179.97" r="2.79"/><circle class="cls-16" cx="369.39" cy="179.97" r="2.79"/><circle class="cls-16" cx="390.28" cy="179.97" r="2.79"/></g><g><path class="cls-16" d="M193.96,179.97c0,1.54-1.25,2.79-2.79,2.79s-2.79-1.25-2.79-2.79,1.25-2.79,2.79-2.79,2.79,1.25,2.79,2.79Z"/><circle class="cls-16" cx="208.5" cy="179.97" r="2.79"/><circle class="cls-16" cx="229.39" cy="179.97" r="2.79"/><circle class="cls-16" cx="250.28" cy="179.97" r="2.79"/><circle class="cls-16" cx="271.17" cy="179.97" r="2.79"/></g><g><circle class="cls-16" cx="86.97" cy="179.97" r="2.79"/><circle class="cls-16" cx="107.86" cy="179.97" r="2.79"/><circle class="cls-16" cx="128.75" cy="179.97" r="2.79"/><circle class="cls-16" cx="149.64" cy="179.97" r="2.79"/><circle class="cls-16" cx="170.53" cy="179.97" r="2.79"/></g></g><text class="cls-8" transform="translate(52.31 184.55)"><tspan x="0" y="0">12</tspan></text><text class="cls-8" transform="translate(25.66 165.58)"><tspan x="0" y="0">NEUROLOGY</tspan></text><g><rect class="cls-15" x="22.49" y="208.47" width="267.16" height="18.37" rx="9.19" ry="9.19"/><rect class="cls-7" x="231.17" y="208.47" width="169.56" height="18.37" rx="9.19" ry="9.19"/><g><path class="cls-16" d="M292.45,217.66c0,1.54-1.25,2.79-2.79,2.79s-2.79-1.25-2.79-2.79,1.25-2.79,2.79-2.79,2.79,1.25,2.79,2.79Z"/><circle class="cls-16" cx="306.98" cy="217.66" r="2.79"/><circle class="cls-16" cx="327.88" cy="217.66" r="2.79"/><circle class="cls-16" cx="348.77" cy="217.66" r="2.79"/><circle class="cls-16" cx="369.66" cy="217.66" r="2.79"/><circle class="cls-16" cx="390.55" cy="217.66" r="2.79"/></g><g><circle class="cls-16" cx="251.13" cy="217.85" r="2.79"/><circle class="cls-16" cx="272.02" cy="217.85" r="2.79"/></g></g><text class="cls-8" transform="translate(214.52 221.35)"><tspan x="0" y="0">45</tspan></text><text class="cls-8" transform="translate(25.92 203.27)"><tspan x="0" y="0">MATERNITY DEPARTMENT</tspan></text><g><rect class="cls-14" x="21.57" y="246.53" width="206.8" height="18.37" rx="9.19" ry="9.19"/><rect class="cls-4" x="207.48" y="246.53" width="192.33" height="18.37" rx="9.02" ry="9.02"/><g><path class="cls-16" d="M291.53,255.72c0,1.54-1.25,2.79-2.79,2.79s-2.79-1.25-2.79-2.79,1.25-2.79,2.79-2.79,2.79,1.25,2.79,2.79Z"/><circle class="cls-16" cx="306.07" cy="255.72" r="2.79"/><circle class="cls-16" cx="326.96" cy="255.72" r="2.79"/><circle class="cls-16" cx="347.85" cy="255.72" r="2.79"/><circle class="cls-16" cx="368.74" cy="255.72" r="2.79"/><circle class="cls-16" cx="389.63" cy="255.72" r="2.79"/></g><g><circle class="cls-16" cx="228.49" cy="255.72" r="2.79"/><circle class="cls-16" cx="249.38" cy="255.72" r="2.79"/><circle class="cls-16" cx="270.27" cy="255.72" r="2.79"/></g></g><text class="cls-8" transform="translate(189.39 259.41)"><tspan x="0" y="0">40</tspan></text><text class="cls-8" transform="translate(25 241.32)"><tspan x="0" y="0" xml:space="preserve">OTOLARYNGOLOGY  </tspan></text></svg>