<?xml version="1.0" encoding="UTF-8"?><svg id="Layer_1" xmlns="http://www.w3.org/2000/svg" viewBox="0 0 70.38 38.38"><defs><style>.cls-1{fill:#4ecb71;}.cls-1,.cls-2,.cls-3,.cls-4{fill-rule:evenodd;}.cls-2{fill:#3f3e40;}.cls-3{fill:#bd362f;}.cls-4{fill:#ffc40d;}</style></defs><path class="cls-1" d="M56.85,7.46c8.25,6.44,13.53,16.47,13.53,27.74h-15.29c0-7.05-3.68-13.25-9.2-16.78l10.95-10.95Z"/><path class="cls-3" d="M0,35.19C0,23.92,5.3,13.9,13.53,7.46l10.96,10.95c-5.54,3.53-9.2,9.73-9.2,16.78H0Z"/><path class="cls-4" d="M14.75,6.54C20.52,2.43,27.57,0,35.19,0s14.69,2.43,20.45,6.54l-11.08,11.09c-2.79-1.5-5.97-2.33-9.36-2.33s-6.57,.84-9.35,2.33L14.75,6.54Z"/><path class="cls-2" d="M34.86,38.38c-1.41-.02-2.53-1.19-2.52-2.6l2.45-15.11,2.67,15.21h0c-.03,1.41-1.2,2.54-2.6,2.51h0Z"/></svg>