<svg version="1.1" id="Layer_1" xmlns="http://www.w3.org/2000/svg" xmlns:xlink="http://www.w3.org/1999/xlink" x="0px" y="0px"
	 width="100%" viewBox="0 0 1579 271" enable-background="new 0 0 1579 271" xml:space="preserve">
<path fill="#FFFFFF" opacity="1.000000" stroke="none" 
	d="
M1503.000000,272.000000 
	C1002.000000,272.000000 501.500061,272.000000 1.000067,272.000000 
	C1.000045,181.666702 1.000045,91.333405 1.000022,1.000079 
	C527.333252,1.000053 1053.666504,1.000053 1579.999756,1.000026 
	C1579.999878,91.333260 1579.999878,181.666519 1580.000000,271.999878 
	C1554.500000,272.000000 1529.000000,272.000000 1503.000000,272.000000 
M801.442627,76.248177 
	C798.444824,76.248505 795.446716,76.221558 792.449280,76.255013 
	C786.757812,76.318527 785.697205,77.809776 787.557922,83.217720 
	C787.976318,84.433624 788.449097,85.735680 789.256104,86.696236 
	C795.143250,93.703606 801.020508,100.724670 807.114563,107.550659 
	C810.207642,111.015213 812.681702,120.632027 810.666870,124.732033 
	C810.118774,125.847549 808.167542,126.823624 806.810486,126.893143 
	C801.827393,127.148430 796.822754,126.949959 791.827332,127.009209 
	C787.096008,127.065323 785.730652,128.787491 787.136230,133.238190 
	C787.710571,135.056534 788.731812,136.847519 789.941772,138.331253 
	C794.732300,144.206009 798.981812,150.810806 804.762024,155.508377 
	C810.537048,160.201782 811.310364,165.432907 811.097900,171.931961 
	C810.954285,176.324631 809.628906,178.306686 804.961060,178.067947 
	C799.056030,177.765945 793.123840,177.994980 785.779907,177.994980 
	C787.247620,182.083511 787.649902,185.535522 789.479614,187.867752 
	C795.150085,195.095612 801.427307,201.844238 807.321777,208.901794 
	C808.826477,210.703323 810.581970,212.861526 810.849304,215.025513 
	C811.695618,221.872894 814.727966,226.080429 821.380859,226.241577 
	C836.020142,226.596207 850.675781,226.408722 865.322571,226.245392 
	C870.815063,226.184143 875.166138,222.544937 875.443970,217.790619 
	C875.815186,211.438583 880.052429,208.730850 883.500000,204.971893 
	C886.738342,201.441055 890.164307,198.048920 893.080200,194.266220 
	C895.440552,191.204346 897.508301,187.806442 899.089478,184.281113 
	C901.284912,179.386215 900.239685,178.028366 895.058228,178.000824 
	C890.062195,177.974258 885.062500,177.883911 880.070984,178.035645 
	C877.087708,178.126343 876.238281,177.014786 875.893372,174.011261 
	C874.917419,165.512924 876.608765,158.390900 884.109253,153.314758 
	C885.869202,152.123657 887.435669,150.472107 888.690186,148.741730 
	C892.316040,143.740967 896.174072,138.828995 899.105286,133.428604 
	C901.580444,128.868484 900.143799,127.096809 895.049866,127.013634 
	C890.055054,126.932068 885.051331,127.132782 880.065857,126.900734 
	C878.695435,126.836945 876.552063,125.976219 876.168457,124.953903 
	C873.762939,118.543472 877.262207,109.940910 882.244629,104.764526 
	C888.296692,98.476830 893.777771,91.527336 898.727600,84.329002 
	C902.211609,79.262413 900.096497,76.299698 893.930542,76.252724 
	C889.267822,76.217194 884.604614,76.249092 879.941650,76.233627 
	C877.482239,76.225471 876.237061,75.475655 875.881042,72.528511 
	C875.076172,65.866600 870.151306,62.012817 863.310547,62.002048 
	C849.820923,61.980812 836.331116,61.971092 822.841675,62.015121 
	C816.007446,62.037430 812.046265,65.789848 810.867432,72.473831 
	C810.620667,73.873222 808.801819,75.411545 807.340759,76.060837 
	C805.944397,76.681335 804.070312,76.226868 801.442627,76.248177 
M1006.093201,106.587395 
	C998.656433,127.607452 991.219727,148.627518 983.511292,170.415543 
	C982.715637,168.355194 982.211304,167.141281 981.774048,165.903671 
	C974.423706,145.096390 967.119446,124.272606 959.663696,103.503181 
	C959.092773,101.912910 957.496460,99.528725 956.323181,99.497078 
	C945.044189,99.192863 933.753601,99.314911 922.322693,99.314911 
	C922.322693,135.781708 922.322693,171.804382 922.322693,207.688995 
	C930.374634,207.688995 938.112244,207.688995 946.063538,207.688995 
	C946.063538,180.466400 946.063538,153.560135 946.063538,126.653854 
	C947.183105,127.775665 947.663452,129.094772 948.103821,130.427094 
	C956.229065,155.012604 964.313049,179.611954 972.559875,204.156555 
	C973.064819,205.659454 974.770142,207.729065 976.052490,207.831055 
	C981.304443,208.248779 986.608948,208.005432 991.972351,208.005432 
	C1001.400635,180.552994 1010.708252,153.451950 1020.015869,126.350899 
	C1020.419189,126.451843 1020.822571,126.552788 1021.225952,126.653732 
	C1021.225952,153.719101 1021.225952,180.784470 1021.225952,207.606232 
	C1029.313232,207.606232 1037.036743,207.606232 1044.650391,207.606232 
	C1044.650391,171.433228 1044.650391,135.662567 1044.650391,99.312210 
	C1035.008179,99.312210 1025.542603,99.686905 1016.126282,99.169052 
	C1010.642090,98.867462 1007.230591,100.116127 1006.093201,106.587395 
M154.934402,172.465912 
	C156.649307,176.408997 157.983459,180.575272 160.142288,184.258148 
	C172.099930,204.657288 198.477417,214.839706 224.085602,209.625931 
	C264.709503,201.355011 275.751038,163.765930 266.270264,133.931976 
	C258.544403,109.620392 236.903534,95.965820 208.830688,96.789207 
	C181.591339,97.588158 161.652832,111.861305 154.700638,135.762131 
	C151.229950,147.693939 151.315033,159.712631 154.934402,172.465912 
M1476.990479,184.500290 
	C1476.990479,177.917526 1476.990479,171.334778 1476.990479,164.660019 
	C1479.028687,164.660019 1480.397705,164.864059 1481.684204,164.624496 
	C1487.107300,163.614700 1489.888672,165.963379 1492.240967,170.902313 
	C1497.737549,182.442871 1503.937134,193.651031 1509.976929,204.926971 
	C1510.644775,206.174011 1512.097290,207.836685 1513.226074,207.868195 
	C1521.973755,208.112442 1530.731323,208.002945 1540.155151,208.002945 
	C1530.796509,192.418594 1521.809204,177.452438 1512.768921,162.398148 
	C1535.553101,154.175613 1543.412476,131.178146 1530.064209,112.647270 
	C1523.478882,103.505051 1513.512695,100.451622 1502.987305,100.012268 
	C1486.851929,99.338730 1470.679932,99.535866 1454.523315,99.393463 
	C1454.079712,99.389549 1453.632935,99.728249 1453.276245,99.871559 
	C1453.276245,135.913116 1453.276245,171.834351 1453.276245,207.715424 
	C1461.292603,207.715424 1469.031250,207.715424 1476.990479,207.715424 
	C1476.990479,200.118515 1476.990479,192.809296 1476.990479,184.500290 
M114.928482,99.313515 
	C111.382034,98.752708 111.352119,100.957115 111.368340,103.551231 
	C111.443176,115.517921 111.401352,127.485336 111.401352,139.691498 
	C95.805878,139.691498 80.574013,139.691498 64.914368,139.691498 
	C64.914368,126.204292 64.914368,112.958900 64.914368,99.612617 
	C56.747906,99.612617 49.011826,99.612617 41.256111,99.612617 
	C41.256111,135.833984 41.256111,171.754562 41.256111,207.752625 
	C49.235798,207.752625 56.971024,207.752625 65.128479,207.752625 
	C65.128479,192.101059 65.128479,176.696915 65.128479,161.375870 
	C80.779137,161.375870 96.002228,161.375870 111.553741,161.375870 
	C111.553741,177.005814 111.553741,192.297195 111.553741,207.738907 
	C119.604233,207.738907 127.318161,207.738907 135.049103,207.738907 
	C135.049103,171.528259 135.049103,135.593506 135.049103,99.313354 
	C128.467773,99.313354 122.162033,99.313354 114.928482,99.313515 
M1394.508301,185.951309 
	C1390.072266,185.951309 1385.636108,185.951309 1381.221313,185.951309 
	C1381.221313,178.314499 1381.221313,171.240448 1381.221313,163.755188 
	C1396.889404,163.755188 1412.289795,163.755188 1427.753174,163.755188 
	C1427.753174,156.255981 1427.753174,149.175262 1427.753174,141.688965 
	C1412.104492,141.688965 1396.702637,141.688965 1381.282104,141.688965 
	C1381.282104,134.721771 1381.282104,128.169327 1381.282104,121.284142 
	C1397.898560,121.284142 1414.178589,121.284142 1430.550659,121.284142 
	C1430.550659,113.880302 1430.550659,106.821518 1430.550659,99.677216 
	C1405.898193,99.677216 1381.540527,99.677216 1357.253052,99.677216 
	C1357.253052,135.946655 1357.253052,171.846848 1357.253052,207.721680 
	C1382.748169,207.721680 1407.965698,207.721680 1433.241821,207.721680 
	C1433.241821,200.356064 1433.241821,193.275970 1433.241821,185.951340 
	C1420.467163,185.951340 1407.986084,185.951340 1394.508301,185.951309 
M1062.250000,190.728165 
	C1059.865601,196.338852 1057.481201,201.949539 1054.907715,208.005219 
	C1062.842285,208.005219 1070.296753,207.820740 1077.734009,208.096344 
	C1080.693481,208.206024 1081.771851,206.988037 1082.682007,204.525558 
	C1085.088013,198.016296 1087.712769,191.587906 1090.239258,185.156006 
	C1104.437378,185.156006 1118.399414,185.156006 1132.486328,185.156006 
	C1135.226440,191.809769 1137.846924,198.414276 1140.709595,204.911987 
	C1141.258179,206.157364 1142.734253,207.831833 1143.827271,207.865768 
	C1151.900879,208.116379 1159.985718,208.001389 1168.660034,208.001389 
	C1167.733765,205.744095 1167.086304,204.084839 1166.377808,202.452164 
	C1153.503174,172.784866 1140.640259,143.112457 1127.720703,113.464684 
	C1125.679199,108.779510 1124.520630,102.415031 1120.872925,100.085793 
	C1117.173828,97.723518 1110.886963,99.550156 1105.750854,99.247971 
	C1102.830200,99.076134 1101.337158,100.071663 1100.172607,102.797493 
	C1087.731934,131.918259 1075.162964,160.984268 1062.250000,190.728165 
M676.526001,208.004074 
	C681.403320,208.004074 686.280640,208.004074 691.640991,208.004074 
	C690.816956,205.870117 690.337830,204.479462 689.752380,203.135162 
	C676.639954,173.027206 663.523132,142.921143 650.385620,112.824127 
	C648.463684,108.420990 647.541992,102.284485 644.150513,100.171844 
	C640.510010,97.904053 634.487732,99.617722 629.529968,99.252518 
	C626.056519,98.996651 624.303711,100.110672 622.882507,103.477318 
	C613.848816,124.877655 604.522400,146.154388 595.313660,167.481003 
	C589.541626,180.848602 583.806580,194.232132 577.884644,208.004578 
	C586.083435,208.004578 593.729980,208.134201 601.363953,207.881134 
	C602.686401,207.837311 604.581665,206.454941 605.140991,205.209625 
	C607.653076,199.616470 609.897766,193.892776 611.986328,188.124741 
	C612.853821,185.729004 614.042603,184.878204 616.637695,184.937042 
	C624.795776,185.121994 632.961182,184.959061 641.122986,185.021179 
	C645.932983,185.057770 651.784729,183.644043 655.245728,185.870605 
	C658.451416,187.932938 659.117615,193.963379 660.870422,198.259354 
	C664.843750,207.998184 664.835754,208.001434 676.526001,208.004074 
M402.494751,99.311951 
	C392.731232,99.311951 382.967682,99.311951 373.256012,99.311951 
	C373.256012,135.903946 373.256012,171.809952 373.256012,207.740021 
	C381.248657,207.740021 388.983154,207.740021 397.207947,207.740021 
	C397.207947,193.602005 397.207947,179.722916 397.207947,165.106277 
	C406.186279,165.106277 414.711121,165.632385 423.148102,164.995285 
	C440.004303,163.722412 453.477386,156.042877 454.684052,133.485809 
	C455.482971,118.550713 447.578094,105.553894 433.141144,102.272942 
	C423.530060,100.088730 413.393250,100.218102 402.494751,99.311951 
M1223.243652,208.919174 
	C1227.601929,206.932648 1232.289185,205.451981 1236.260620,202.870316 
	C1251.846680,192.738739 1255.669434,168.069351 1242.882202,155.779587 
	C1237.745728,150.842880 1230.232178,148.216599 1223.532104,145.119156 
	C1217.840698,142.487991 1211.697021,140.853485 1205.880249,138.468597 
	C1201.952881,136.858337 1200.017456,133.542084 1200.382812,129.285751 
	C1200.742798,125.091476 1203.169312,122.347832 1207.116211,120.809677 
	C1216.979126,116.965973 1225.843262,118.724144 1233.897949,125.751434 
	C1239.339355,119.800575 1244.589600,114.058792 1250.052124,108.084778 
	C1240.726440,99.542305 1229.591797,96.904091 1217.739990,96.829147 
	C1201.938477,96.729225 1188.229980,101.299065 1179.475952,115.698799 
	C1172.805298,126.671661 1174.060425,143.174454 1183.441772,151.020676 
	C1188.751587,155.461609 1195.700684,158.051605 1202.119263,161.026932 
	C1208.562500,164.013718 1215.612915,165.823975 1221.758545,169.284103 
	C1228.514160,173.087585 1227.881592,182.713486 1220.785278,185.748276 
	C1216.687988,187.500534 1211.850586,188.136612 1207.338745,188.167450 
	C1199.806641,188.218887 1193.974365,183.973618 1188.829834,178.486206 
	C1183.007568,184.907379 1177.490967,190.991409 1171.901245,197.156174 
	C1187.072266,210.318771 1203.979004,212.999817 1223.243652,208.919174 
M329.111115,97.095337 
	C327.114868,96.996399 325.119324,96.829002 323.122284,96.809631 
	C310.194275,96.684189 298.490997,99.780411 289.092712,109.367455 
	C278.537628,120.134514 276.604645,141.694977 288.192078,150.721771 
	C294.431427,155.582321 302.284027,158.438492 309.558716,161.882172 
	C315.223785,164.563904 321.473877,166.157776 326.824921,169.317429 
	C333.500153,173.258957 332.821411,182.712082 325.719757,185.788574 
	C321.771332,187.499054 317.120056,188.185196 312.771332,188.241882 
	C305.056091,188.342407 299.074280,184.061081 293.797791,178.530624 
	C288.054840,184.859543 282.604034,190.866516 277.168518,196.856644 
	C293.114044,213.024658 324.641907,215.526993 342.340485,202.275269 
	C356.936188,191.346817 359.897766,168.491409 348.281647,155.774506 
	C342.921783,149.906754 335.692841,147.369843 328.389099,144.933884 
	C322.427856,142.945694 316.524231,140.749496 310.713776,138.357208 
	C306.968018,136.815002 305.143372,133.602295 305.360748,129.575409 
	C305.588013,125.364937 307.919220,122.490234 311.843201,120.916817 
	C321.720337,116.956375 330.616150,118.636917 338.861328,125.770821 
	C344.203400,119.940750 349.551361,114.104256 354.992493,108.166100 
	C347.842102,101.080132 339.093872,98.748802 329.111115,97.095337 
M1290.722046,208.002792 
	C1298.131226,208.002792 1305.540405,208.002792 1313.174805,208.002792 
	C1313.174805,178.517532 1313.174805,149.748306 1313.174805,120.558060 
	C1323.488037,120.558060 1333.562744,120.558060 1343.624390,120.558060 
	C1343.624390,113.264816 1343.624390,106.400940 1343.624390,99.534767 
	C1314.997437,99.534767 1286.751343,99.534767 1258.380371,99.534767 
	C1258.380371,106.626930 1258.380371,113.480972 1258.380371,120.625412 
	C1268.669189,120.625412 1278.609131,120.625412 1289.020630,120.625412 
	C1289.020630,122.708275 1289.020508,124.499573 1289.020630,126.290863 
	C1289.021118,151.766953 1289.007202,177.243073 1289.053711,202.719070 
	C1289.056885,204.456696 1289.514160,206.193512 1290.722046,208.002792 
M518.512939,99.307816 
	C514.080322,99.307816 509.647705,99.307816 505.327271,99.307816 
	C505.327271,106.748337 505.327271,113.494896 505.327271,120.716499 
	C515.665588,120.716499 525.711792,120.716499 536.187622,120.716499 
	C536.187622,150.072510 536.187622,178.949265 536.187622,207.697250 
	C544.369263,207.697250 552.104248,207.697250 560.250610,207.697250 
	C560.250610,178.509521 560.250610,149.630905 560.250610,120.482620 
	C570.622070,120.482620 580.573608,120.482620 590.680664,120.482620 
	C590.680664,113.340569 590.680664,106.477615 590.680664,99.307831 
	C566.740723,99.307831 543.124390,99.307831 518.512939,99.307816 
M703.981934,159.500000 
	C703.981934,175.586136 703.981934,191.672272 703.981934,207.791992 
	C726.947388,207.791992 749.356018,207.791992 771.946899,207.791992 
	C771.946899,200.515091 771.946899,193.449570 771.946899,185.857697 
	C757.205261,185.857697 742.665649,185.857697 727.720703,185.857697 
	C727.720703,156.781723 727.720703,128.230667 727.720703,99.692139 
	C719.587097,99.692139 711.878662,99.692139 703.981934,99.692139 
	C703.981934,119.548981 703.981934,139.024490 703.981934,159.500000 
M469.819122,135.499924 
	C469.819122,159.567108 469.819122,183.634293 469.819122,207.684021 
	C478.072723,207.684021 485.791016,207.684021 493.462891,207.684021 
	C493.462891,171.490265 493.462891,135.622955 493.462891,99.692047 
	C485.462555,99.692047 477.767853,99.692047 469.819122,99.692047 
	C469.819122,111.551933 469.819122,123.025917 469.819122,135.499924 
z"/>
<path fill="#040303" opacity="1.000000" stroke="none" 
	d="
M801.924438,76.246544 
	C804.070312,76.226868 805.944397,76.681335 807.340759,76.060837 
	C808.801819,75.411545 810.620667,73.873222 810.867432,72.473831 
	C812.046265,65.789848 816.007446,62.037430 822.841675,62.015121 
	C836.331116,61.971092 849.820923,61.980812 863.310547,62.002048 
	C870.151306,62.012817 875.076172,65.866600 875.881042,72.528511 
	C876.237061,75.475655 877.482239,76.225471 879.941650,76.233627 
	C884.604614,76.249092 889.267822,76.217194 893.930542,76.252724 
	C900.096497,76.299698 902.211609,79.262413 898.727600,84.329002 
	C893.777771,91.527336 888.296692,98.476830 882.244629,104.764526 
	C877.262207,109.940910 873.762939,118.543472 876.168457,124.953903 
	C876.552063,125.976219 878.695435,126.836945 880.065857,126.900734 
	C885.051331,127.132782 890.055054,126.932068 895.049866,127.013634 
	C900.143799,127.096809 901.580444,128.868484 899.105286,133.428604 
	C896.174072,138.828995 892.316040,143.740967 888.690186,148.741730 
	C887.435669,150.472107 885.869202,152.123657 884.109253,153.314758 
	C876.608765,158.390900 874.917419,165.512924 875.893372,174.011261 
	C876.238281,177.014786 877.087708,178.126343 880.070984,178.035645 
	C885.062500,177.883911 890.062195,177.974258 895.058228,178.000824 
	C900.239685,178.028366 901.284912,179.386215 899.089478,184.281113 
	C897.508301,187.806442 895.440552,191.204346 893.080200,194.266220 
	C890.164307,198.048920 886.738342,201.441055 883.500000,204.971893 
	C880.052429,208.730850 875.815186,211.438583 875.443970,217.790619 
	C875.166138,222.544937 870.815063,226.184143 865.322571,226.245392 
	C850.675781,226.408722 836.020142,226.596207 821.380859,226.241577 
	C814.727966,226.080429 811.695618,221.872894 810.849304,215.025513 
	C810.581970,212.861526 808.826477,210.703323 807.321777,208.901794 
	C801.427307,201.844238 795.150085,195.095612 789.479614,187.867752 
	C787.649902,185.535522 787.247620,182.083511 785.779907,177.994980 
	C793.123840,177.994980 799.056030,177.765945 804.961060,178.067947 
	C809.628906,178.306686 810.954285,176.324631 811.097900,171.931961 
	C811.310364,165.432907 810.537048,160.201782 804.762024,155.508377 
	C798.981812,150.810806 794.732300,144.206009 789.941772,138.331253 
	C788.731812,136.847519 787.710571,135.056534 787.136230,133.238190 
	C785.730652,128.787491 787.096008,127.065323 791.827332,127.009209 
	C796.822754,126.949959 801.827393,127.148430 806.810486,126.893143 
	C808.167542,126.823624 810.118774,125.847549 810.666870,124.732033 
	C812.681702,120.632027 810.207642,111.015213 807.114563,107.550659 
	C801.020508,100.724670 795.143250,93.703606 789.256104,86.696236 
	C788.449097,85.735680 787.976318,84.433624 787.557922,83.217720 
	C785.697205,77.809776 786.757812,76.318527 792.449280,76.255013 
	C795.446716,76.221558 798.444824,76.248505 801.924438,76.246544 
M859.009094,135.977936 
	C859.009094,135.977936 859.063049,135.925476 859.016724,135.235474 
	C851.253052,122.496521 834.770447,123.214935 827.543335,135.532761 
	C826.687195,137.999863 825.318420,140.417007 825.072327,142.943542 
	C824.370239,150.150238 828.863647,157.620026 835.311096,160.790634 
	C841.422058,163.795776 850.397766,162.492935 855.720337,157.828247 
	C861.096985,153.116318 862.743591,145.681854 860.107849,137.312103 
	C859.764893,136.858170 859.421936,136.404236 859.009094,135.977936 
M858.855896,203.788315 
	C859.635620,199.993439 861.092590,196.192245 861.057434,192.404938 
	C860.978516,183.919876 854.006287,177.400940 844.546265,176.124786 
	C837.571716,175.183929 829.319580,180.590179 826.189392,188.320496 
	C822.913574,196.905243 826.992981,206.921982 835.364624,210.849579 
	C843.933960,214.869919 853.900696,211.978180 858.855896,203.788315 
M824.952759,95.354126 
	C826.291138,105.882454 834.889893,113.576256 844.382874,112.739265 
	C854.317200,111.863365 862.062195,103.391853 861.734680,93.759888 
	C861.416626,84.404930 852.987488,76.297424 843.442627,76.165695 
	C833.729309,76.031639 825.542175,84.146004 824.952759,95.354126 
z"/>
<path fill="#030303" opacity="1.000000" stroke="none" 
	d="
M1006.222656,106.217087 
	C1007.230591,100.116127 1010.642090,98.867462 1016.126282,99.169052 
	C1025.542603,99.686905 1035.008179,99.312210 1044.650391,99.312210 
	C1044.650391,135.662567 1044.650391,171.433228 1044.650391,207.606232 
	C1037.036743,207.606232 1029.313232,207.606232 1021.225952,207.606232 
	C1021.225952,180.784470 1021.225952,153.719101 1021.225952,126.653732 
	C1020.822571,126.552788 1020.419189,126.451843 1020.015869,126.350899 
	C1010.708252,153.451950 1001.400635,180.552994 991.972351,208.005432 
	C986.608948,208.005432 981.304443,208.248779 976.052490,207.831055 
	C974.770142,207.729065 973.064819,205.659454 972.559875,204.156555 
	C964.313049,179.611954 956.229065,155.012604 948.103821,130.427094 
	C947.663452,129.094772 947.183105,127.775665 946.063538,126.653854 
	C946.063538,153.560135 946.063538,180.466400 946.063538,207.688995 
	C938.112244,207.688995 930.374634,207.688995 922.322693,207.688995 
	C922.322693,171.804382 922.322693,135.781708 922.322693,99.314911 
	C933.753601,99.314911 945.044189,99.192863 956.323181,99.497078 
	C957.496460,99.528725 959.092773,101.912910 959.663696,103.503181 
	C967.119446,124.272606 974.423706,145.096390 981.774048,165.903671 
	C982.211304,167.141281 982.715637,168.355194 983.511292,170.415543 
	C991.219727,148.627518 998.656433,127.607452 1006.222656,106.217087 
z"/>
<path fill="#030303" opacity="1.000000" stroke="none" 
	d="
M154.824493,172.075974 
	C151.315033,159.712631 151.229950,147.693939 154.700638,135.762131 
	C161.652832,111.861305 181.591339,97.588158 208.830688,96.789207 
	C236.903534,95.965820 258.544403,109.620392 266.270264,133.931976 
	C275.751038,163.765930 264.709503,201.355011 224.085602,209.625931 
	C198.477417,214.839706 172.099930,204.657288 160.142288,184.258148 
	C157.983459,180.575272 156.649307,176.408997 154.824493,172.075974 
M213.281967,118.980171 
	C195.086960,118.397514 182.401794,127.177536 178.412186,143.744827 
	C175.225952,156.976028 177.145477,169.515076 187.139557,179.373993 
	C197.065720,189.165878 209.441727,190.537659 222.392899,186.749054 
	C235.514435,182.910645 243.445343,171.168869 244.430740,154.996353 
	C245.601593,135.779999 232.781799,120.521942 213.281967,118.980171 
z"/>
<path fill="#030303" opacity="1.000000" stroke="none" 
	d="
M1476.990479,185.000183 
	C1476.990479,192.809296 1476.990479,200.118515 1476.990479,207.715424 
	C1469.031250,207.715424 1461.292603,207.715424 1453.276245,207.715424 
	C1453.276245,171.834351 1453.276245,135.913116 1453.276245,99.871559 
	C1453.632935,99.728249 1454.079712,99.389549 1454.523315,99.393463 
	C1470.679932,99.535866 1486.851929,99.338730 1502.987305,100.012268 
	C1513.512695,100.451622 1523.478882,103.505051 1530.064209,112.647270 
	C1543.412476,131.178146 1535.553101,154.175613 1512.768921,162.398148 
	C1521.809204,177.452438 1530.796509,192.418594 1540.155151,208.002945 
	C1530.731323,208.002945 1521.973755,208.112442 1513.226074,207.868195 
	C1512.097290,207.836685 1510.644775,206.174011 1509.976929,204.926971 
	C1503.937134,193.651031 1497.737549,182.442871 1492.240967,170.902313 
	C1489.888672,165.963379 1487.107300,163.614700 1481.684204,164.624496 
	C1480.397705,164.864059 1479.028687,164.660019 1476.990479,164.660019 
	C1476.990479,171.334778 1476.990479,177.917526 1476.990479,185.000183 
M1498.034058,120.009056 
	C1491.131958,120.009056 1484.229858,120.009056 1477.220459,120.009056 
	C1477.220459,128.135849 1477.220459,136.030502 1477.220459,143.913025 
	C1484.881958,143.913025 1492.340332,144.335678 1499.729614,143.802124 
	C1508.265381,143.185806 1512.758301,136.885925 1510.811035,128.999680 
	C1509.312500,122.930992 1504.424683,120.995895 1498.034058,120.009056 
z"/>
<path fill="#030303" opacity="1.000000" stroke="none" 
	d="
M115.392395,99.313431 
	C122.162033,99.313354 128.467773,99.313354 135.049103,99.313354 
	C135.049103,135.593506 135.049103,171.528259 135.049103,207.738907 
	C127.318161,207.738907 119.604233,207.738907 111.553741,207.738907 
	C111.553741,192.297195 111.553741,177.005814 111.553741,161.375870 
	C96.002228,161.375870 80.779137,161.375870 65.128479,161.375870 
	C65.128479,176.696915 65.128479,192.101059 65.128479,207.752625 
	C56.971024,207.752625 49.235798,207.752625 41.256111,207.752625 
	C41.256111,171.754562 41.256111,135.833984 41.256111,99.612617 
	C49.011826,99.612617 56.747906,99.612617 64.914368,99.612617 
	C64.914368,112.958900 64.914368,126.204292 64.914368,139.691498 
	C80.574013,139.691498 95.805878,139.691498 111.401352,139.691498 
	C111.401352,127.485336 111.443176,115.517921 111.368340,103.551231 
	C111.352119,100.957115 111.382034,98.752708 115.392395,99.313431 
z"/>
<path fill="#030303" opacity="1.000000" stroke="none" 
	d="
M1395.006592,185.951324 
	C1407.986084,185.951340 1420.467163,185.951340 1433.241821,185.951340 
	C1433.241821,193.275970 1433.241821,200.356064 1433.241821,207.721680 
	C1407.965698,207.721680 1382.748169,207.721680 1357.253052,207.721680 
	C1357.253052,171.846848 1357.253052,135.946655 1357.253052,99.677216 
	C1381.540527,99.677216 1405.898193,99.677216 1430.550659,99.677216 
	C1430.550659,106.821518 1430.550659,113.880302 1430.550659,121.284142 
	C1414.178589,121.284142 1397.898560,121.284142 1381.282104,121.284142 
	C1381.282104,128.169327 1381.282104,134.721771 1381.282104,141.688965 
	C1396.702637,141.688965 1412.104492,141.688965 1427.753174,141.688965 
	C1427.753174,149.175262 1427.753174,156.255981 1427.753174,163.755188 
	C1412.289795,163.755188 1396.889404,163.755188 1381.221313,163.755188 
	C1381.221313,171.240448 1381.221313,178.314499 1381.221313,185.951309 
	C1385.636108,185.951309 1390.072266,185.951309 1395.006592,185.951324 
z"/>
<path fill="#030303" opacity="1.000000" stroke="none" 
	d="
M1062.439697,190.396729 
	C1075.162964,160.984268 1087.731934,131.918259 1100.172607,102.797493 
	C1101.337158,100.071663 1102.830200,99.076134 1105.750854,99.247971 
	C1110.886963,99.550156 1117.173828,97.723518 1120.872925,100.085793 
	C1124.520630,102.415031 1125.679199,108.779510 1127.720703,113.464684 
	C1140.640259,143.112457 1153.503174,172.784866 1166.377808,202.452164 
	C1167.086304,204.084839 1167.733765,205.744095 1168.660034,208.001389 
	C1159.985718,208.001389 1151.900879,208.116379 1143.827271,207.865768 
	C1142.734253,207.831833 1141.258179,206.157364 1140.709595,204.911987 
	C1137.846924,198.414276 1135.226440,191.809769 1132.486328,185.156006 
	C1118.399414,185.156006 1104.437378,185.156006 1090.239258,185.156006 
	C1087.712769,191.587906 1085.088013,198.016296 1082.682007,204.525558 
	C1081.771851,206.988037 1080.693481,208.206024 1077.734009,208.096344 
	C1070.296753,207.820740 1062.842285,208.005219 1054.907715,208.005219 
	C1057.481201,201.949539 1059.865601,196.338852 1062.439697,190.396729 
M1117.066650,146.390015 
	C1115.151978,141.621338 1113.237305,136.852646 1110.914429,131.067169 
	C1106.265381,143.050339 1102.111328,153.757706 1097.920166,164.560425 
	C1106.978882,164.560425 1115.364990,164.560425 1124.274780,164.560425 
	C1121.842285,158.460876 1119.581177,152.791092 1117.066650,146.390015 
z"/>
<path fill="#030303" opacity="1.000000" stroke="none" 
	d="
M676.032959,208.004044 
	C664.835754,208.001434 664.843750,207.998184 660.870422,198.259354 
	C659.117615,193.963379 658.451416,187.932938 655.245728,185.870605 
	C651.784729,183.644043 645.932983,185.057770 641.122986,185.021179 
	C632.961182,184.959061 624.795776,185.121994 616.637695,184.937042 
	C614.042603,184.878204 612.853821,185.729004 611.986328,188.124741 
	C609.897766,193.892776 607.653076,199.616470 605.140991,205.209625 
	C604.581665,206.454941 602.686401,207.837311 601.363953,207.881134 
	C593.729980,208.134201 586.083435,208.004578 577.884644,208.004578 
	C583.806580,194.232132 589.541626,180.848602 595.313660,167.481003 
	C604.522400,146.154388 613.848816,124.877655 622.882507,103.477318 
	C624.303711,100.110672 626.056519,98.996651 629.529968,99.252518 
	C634.487732,99.617722 640.510010,97.904053 644.150513,100.171844 
	C647.541992,102.284485 648.463684,108.420990 650.385620,112.824127 
	C663.523132,142.921143 676.639954,173.027206 689.752380,203.135162 
	C690.337830,204.479462 690.816956,205.870117 691.640991,208.004074 
	C686.280640,208.004074 681.403320,208.004074 676.032959,208.004044 
M630.575195,164.845306 
	C635.970093,164.845306 641.364929,164.845306 647.377319,164.845306 
	C642.890503,153.495941 638.676758,142.837128 633.979492,130.955338 
	C629.316284,142.945679 625.134216,153.699081 620.799500,164.844940 
	C624.291687,164.844940 626.948669,164.844940 630.575195,164.845306 
z"/>
<path fill="#030303" opacity="1.000000" stroke="none" 
	d="
M402.993225,99.311951 
	C413.393250,100.218102 423.530060,100.088730 433.141144,102.272942 
	C447.578094,105.553894 455.482971,118.550713 454.684052,133.485809 
	C453.477386,156.042877 440.004303,163.722412 423.148102,164.995285 
	C414.711121,165.632385 406.186279,165.106277 397.207947,165.106277 
	C397.207947,179.722916 397.207947,193.602005 397.207947,207.740021 
	C388.983154,207.740021 381.248657,207.740021 373.256012,207.740021 
	C373.256012,171.809952 373.256012,135.903946 373.256012,99.311951 
	C382.967682,99.311951 392.731232,99.311951 402.993225,99.311951 
M426.563873,141.023224 
	C432.888977,132.228592 429.931793,122.909935 419.441498,120.870445 
	C412.249756,119.472229 404.719299,119.816284 397.230408,119.375038 
	C397.230408,128.536774 397.230408,136.794449 397.230408,145.229218 
	C402.935913,145.229218 408.452850,145.695633 413.845642,145.078003 
	C417.975525,144.605011 421.948578,142.762726 426.563873,141.023224 
z"/>
<path fill="#040404" opacity="1.000000" stroke="none" 
	d="
M1222.831543,208.968201 
	C1203.979004,212.999817 1187.072266,210.318771 1171.901245,197.156174 
	C1177.490967,190.991409 1183.007568,184.907379 1188.829834,178.486206 
	C1193.974365,183.973618 1199.806641,188.218887 1207.338745,188.167450 
	C1211.850586,188.136612 1216.687988,187.500534 1220.785278,185.748276 
	C1227.881592,182.713486 1228.514160,173.087585 1221.758545,169.284103 
	C1215.612915,165.823975 1208.562500,164.013718 1202.119263,161.026932 
	C1195.700684,158.051605 1188.751587,155.461609 1183.441772,151.020676 
	C1174.060425,143.174454 1172.805298,126.671661 1179.475952,115.698799 
	C1188.229980,101.299065 1201.938477,96.729225 1217.739990,96.829147 
	C1229.591797,96.904091 1240.726440,99.542305 1250.052124,108.084778 
	C1244.589600,114.058792 1239.339355,119.800575 1233.897949,125.751434 
	C1225.843262,118.724144 1216.979126,116.965973 1207.116211,120.809677 
	C1203.169312,122.347832 1200.742798,125.091476 1200.382812,129.285751 
	C1200.017456,133.542084 1201.952881,136.858337 1205.880249,138.468597 
	C1211.697021,140.853485 1217.840698,142.487991 1223.532104,145.119156 
	C1230.232178,148.216599 1237.745728,150.842880 1242.882202,155.779587 
	C1255.669434,168.069351 1251.846680,192.738739 1236.260620,202.870316 
	C1232.289185,205.451981 1227.601929,206.932648 1222.831543,208.968201 
z"/>
<path fill="#030303" opacity="1.000000" stroke="none" 
	d="
M329.567078,97.122215 
	C339.093872,98.748802 347.842102,101.080132 354.992493,108.166100 
	C349.551361,114.104256 344.203400,119.940750 338.861328,125.770821 
	C330.616150,118.636917 321.720337,116.956375 311.843201,120.916817 
	C307.919220,122.490234 305.588013,125.364937 305.360748,129.575409 
	C305.143372,133.602295 306.968018,136.815002 310.713776,138.357208 
	C316.524231,140.749496 322.427856,142.945694 328.389099,144.933884 
	C335.692841,147.369843 342.921783,149.906754 348.281647,155.774506 
	C359.897766,168.491409 356.936188,191.346817 342.340485,202.275269 
	C324.641907,215.526993 293.114044,213.024658 277.168518,196.856644 
	C282.604034,190.866516 288.054840,184.859543 293.797791,178.530624 
	C299.074280,184.061081 305.056091,188.342407 312.771332,188.241882 
	C317.120056,188.185196 321.771332,187.499054 325.719757,185.788574 
	C332.821411,182.712082 333.500153,173.258957 326.824921,169.317429 
	C321.473877,166.157776 315.223785,164.563904 309.558716,161.882172 
	C302.284027,158.438492 294.431427,155.582321 288.192078,150.721771 
	C276.604645,141.694977 278.537628,120.134514 289.092712,109.367455 
	C298.490997,99.780411 310.194275,96.684189 323.122284,96.809631 
	C325.119324,96.829002 327.114868,96.996399 329.567078,97.122215 
z"/>
<path fill="#050505" opacity="1.000000" stroke="none" 
	d="
M1290.241089,207.966751 
	C1289.514160,206.193512 1289.056885,204.456696 1289.053711,202.719070 
	C1289.007202,177.243073 1289.021118,151.766953 1289.020630,126.290863 
	C1289.020508,124.499573 1289.020630,122.708275 1289.020630,120.625412 
	C1278.609131,120.625412 1268.669189,120.625412 1258.380371,120.625412 
	C1258.380371,113.480972 1258.380371,106.626930 1258.380371,99.534767 
	C1286.751343,99.534767 1314.997437,99.534767 1343.624390,99.534767 
	C1343.624390,106.400940 1343.624390,113.264816 1343.624390,120.558060 
	C1333.562744,120.558060 1323.488037,120.558060 1313.174805,120.558060 
	C1313.174805,149.748306 1313.174805,178.517532 1313.174805,208.002792 
	C1305.540405,208.002792 1298.131226,208.002792 1290.241089,207.966751 
z"/>
<path fill="#050505" opacity="1.000000" stroke="none" 
	d="
M519.010498,99.307823 
	C543.124390,99.307831 566.740723,99.307831 590.680664,99.307831 
	C590.680664,106.477615 590.680664,113.340569 590.680664,120.482620 
	C580.573608,120.482620 570.622070,120.482620 560.250610,120.482620 
	C560.250610,149.630905 560.250610,178.509521 560.250610,207.697250 
	C552.104248,207.697250 544.369263,207.697250 536.187622,207.697250 
	C536.187622,178.949265 536.187622,150.072510 536.187622,120.716499 
	C525.711792,120.716499 515.665588,120.716499 505.327271,120.716499 
	C505.327271,113.494896 505.327271,106.748337 505.327271,99.307816 
	C509.647705,99.307816 514.080322,99.307816 519.010498,99.307823 
z"/>
<path fill="#020202" opacity="1.000000" stroke="none" 
	d="
M703.981934,159.000000 
	C703.981934,139.024490 703.981934,119.548981 703.981934,99.692139 
	C711.878662,99.692139 719.587097,99.692139 727.720703,99.692139 
	C727.720703,128.230667 727.720703,156.781723 727.720703,185.857697 
	C742.665649,185.857697 757.205261,185.857697 771.946899,185.857697 
	C771.946899,193.449570 771.946899,200.515091 771.946899,207.791992 
	C749.356018,207.791992 726.947388,207.791992 703.981934,207.791992 
	C703.981934,191.672272 703.981934,175.586136 703.981934,159.000000 
z"/>
<path fill="#050505" opacity="1.000000" stroke="none" 
	d="
M469.819122,134.999908 
	C469.819122,123.025917 469.819122,111.551933 469.819122,99.692047 
	C477.767853,99.692047 485.462555,99.692047 493.462891,99.692047 
	C493.462891,135.622955 493.462891,171.490265 493.462891,207.684021 
	C485.791016,207.684021 478.072723,207.684021 469.819122,207.684021 
	C469.819122,183.634293 469.819122,159.567108 469.819122,134.999908 
z"/>
<path fill="#C71307" opacity="1.000000" stroke="none" 
	d="
M824.951660,94.923721 
	C825.542175,84.146004 833.729309,76.031639 843.442627,76.165695 
	C852.987488,76.297424 861.416626,84.404930 861.734680,93.759888 
	C862.062195,103.391853 854.317200,111.863365 844.382874,112.739265 
	C834.889893,113.576256 826.291138,105.882454 824.951660,94.923721 
z"/>
<path fill="#F27211" opacity="1.000000" stroke="none" 
	d="
M860.126282,137.935791 
	C862.743591,145.681854 861.096985,153.116318 855.720337,157.828247 
	C850.397766,162.492935 841.422058,163.795776 835.311096,160.790634 
	C828.863647,157.620026 824.370239,150.150238 825.072327,142.943542 
	C825.318420,140.417007 826.687195,137.999863 828.196777,135.303452 
	C835.100525,131.771698 841.599182,129.790421 848.655945,132.004074 
	C852.187500,133.111923 855.597839,134.606049 859.063049,135.925476 
	C859.063049,135.925476 859.009094,135.977936 859.014099,136.277756 
	C859.388123,137.030319 859.757202,137.483047 860.126282,137.935791 
z"/>
<path fill="#479551" opacity="1.000000" stroke="none" 
	d="
M826.752869,187.781906 
	C829.319580,180.590179 837.571716,175.183929 844.546265,176.124786 
	C854.006287,177.400940 860.978516,183.919876 861.057434,192.404938 
	C861.092590,196.192245 859.635620,199.993439 858.475037,203.936966 
	C858.094177,204.085617 857.953613,203.955093 857.974609,203.546387 
	C858.328674,198.925507 859.631836,194.502975 858.774414,190.548965 
	C857.377625,184.107788 852.150818,180.398819 845.908203,179.132812 
	C839.639832,177.861557 834.234314,180.046188 830.278687,185.378860 
	C829.470947,186.467758 828.141907,187.169968 826.978271,187.983078 
	C826.903442,187.915726 826.752869,187.781906 826.752869,187.781906 
z"/>
<path fill="#B35B1C" opacity="1.000000" stroke="none" 
	d="
M859.039917,135.580475 
	C855.597839,134.606049 852.187500,133.111923 848.655945,132.004074 
	C841.599182,129.790421 835.100525,131.771698 828.474609,135.070465 
	C834.770447,123.214935 851.253052,122.496521 859.039917,135.580475 
z"/>
<path fill="#479551" opacity="1.000000" stroke="none" 
	d="
M858.165771,204.149475 
	C853.900696,211.978180 843.933960,214.869919 835.364624,210.849579 
	C826.992981,206.921982 822.913574,196.905243 826.471130,188.051208 
	C826.752869,187.781906 826.903442,187.915726 826.967041,188.434525 
	C827.020813,191.282150 826.905945,193.616150 827.019958,195.938889 
	C827.427734,204.245071 837.073730,212.187805 844.886719,210.032639 
	C849.453735,208.772873 853.611633,206.030472 857.953613,203.955078 
	C857.953613,203.955093 858.094177,204.085617 858.165771,204.149475 
z"/>
<path fill="#B35B1C" opacity="1.000000" stroke="none" 
	d="
M860.117065,137.623947 
	C859.757202,137.483047 859.388123,137.030319 859.049011,136.263947 
	C859.421936,136.404236 859.764893,136.858170 860.117065,137.623947 
z"/>
<path fill="#FDFDFD" opacity="1.000000" stroke="none" 
	d="
M213.740753,118.997757 
	C232.781799,120.521942 245.601593,135.779999 244.430740,154.996353 
	C243.445343,171.168869 235.514435,182.910645 222.392899,186.749054 
	C209.441727,190.537659 197.065720,189.165878 187.139557,179.373993 
	C177.145477,169.515076 175.225952,156.976028 178.412186,143.744827 
	C182.401794,127.177536 195.086960,118.397514 213.740753,118.997757 
z"/>
<path fill="#FDFDFD" opacity="1.000000" stroke="none" 
	d="
M1498.478516,120.031593 
	C1504.424683,120.995895 1509.312500,122.930992 1510.811035,128.999680 
	C1512.758301,136.885925 1508.265381,143.185806 1499.729614,143.802124 
	C1492.340332,144.335678 1484.881958,143.913025 1477.220459,143.913025 
	C1477.220459,136.030502 1477.220459,128.135849 1477.220459,120.009056 
	C1484.229858,120.009056 1491.131958,120.009056 1498.478516,120.031593 
z"/>
<path fill="#F5F5F5" opacity="1.000000" stroke="none" 
	d="
M1117.193359,146.755676 
	C1119.581177,152.791092 1121.842285,158.460876 1124.274780,164.560425 
	C1115.364990,164.560425 1106.978882,164.560425 1097.920166,164.560425 
	C1102.111328,153.757706 1106.265381,143.050339 1110.914429,131.067169 
	C1113.237305,136.852646 1115.151978,141.621338 1117.193359,146.755676 
z"/>
<path fill="#F5F5F5" opacity="1.000000" stroke="none" 
	d="
M630.090454,164.845123 
	C626.948669,164.844940 624.291687,164.844940 620.799500,164.844940 
	C625.134216,153.699081 629.316284,142.945679 633.979492,130.955338 
	C638.676758,142.837128 642.890503,153.495941 647.377319,164.845306 
	C641.364929,164.845306 635.970093,164.845306 630.090454,164.845123 
z"/>
<path fill="#FCFCFC" opacity="1.000000" stroke="none" 
	d="
M426.277618,141.276352 
	C421.948578,142.762726 417.975525,144.605011 413.845642,145.078003 
	C408.452850,145.695633 402.935913,145.229218 397.230408,145.229218 
	C397.230408,136.794449 397.230408,128.536774 397.230408,119.375038 
	C404.719299,119.816284 412.249756,119.472229 419.441498,120.870445 
	C429.931793,122.909935 432.888977,132.228592 426.277618,141.276352 
z"/>
<path fill="#31AF3F" opacity="1.000000" stroke="none" 
	d="
M857.974609,203.546371 
	C853.611633,206.030472 849.453735,208.772873 844.886719,210.032639 
	C837.073730,212.187805 827.427734,204.245071 827.019958,195.938889 
	C826.905945,193.616150 827.020813,191.282150 827.041931,188.501877 
	C828.141907,187.169968 829.470947,186.467758 830.278687,185.378860 
	C834.234314,180.046188 839.639832,177.861557 845.908203,179.132812 
	C852.150818,180.398819 857.377625,184.107788 858.774414,190.548965 
	C859.631836,194.502975 858.328674,198.925507 857.974609,203.546371 
z"/>
</svg>